<svg xmlns="http://www.w3.org/2000/svg" viewBox="0 0 96 96" role="img" aria-labelledby="title">
  <title>United States flag</title>
  <defs>
    <clipPath id="circle">
      <circle cx="48" cy="48" r="44" />
    </clipPath>
  </defs>
  <g clip-path="url(#circle)">
    <rect width="96" height="96" fill="#FFFFFF" />
    <g fill="#D80027">
      <rect width="96" height="8" y="0" />
      <rect width="96" height="8" y="16" />
      <rect width="96" height="8" y="32" />
      <rect width="96" height="8" y="48" />
      <rect width="96" height="8" y="64" />
      <rect width="96" height="8" y="80" />
    </g>
    <rect width="46" height="42" fill="#0052B4" />
    <g fill="#FFFFFF">
      <circle cx="7" cy="7" r="2.1" />
      <circle cx="18" cy="7" r="2.1" />
      <circle cx="29" cy="7" r="2.1" />
      <circle cx="40" cy="7" r="2.1" />
      <circle cx="12.5" cy="14" r="2.1" />
      <circle cx="23.5" cy="14" r="2.1" />
      <circle cx="34.5" cy="14" r="2.1" />
      <circle cx="7" cy="21" r="2.1" />
      <circle cx="18" cy="21" r="2.1" />
      <circle cx="29" cy="21" r="2.1" />
      <circle cx="40" cy="21" r="2.1" />
      <circle cx="12.5" cy="28" r="2.1" />
      <circle cx="23.5" cy="28" r="2.1" />
      <circle cx="34.5" cy="28" r="2.1" />
      <circle cx="7" cy="35" r="2.1" />
      <circle cx="18" cy="35" r="2.1" />
      <circle cx="29" cy="35" r="2.1" />
      <circle cx="40" cy="35" r="2.1" />
    </g>
  </g>
  <circle cx="48" cy="48" r="44" fill="none" stroke="rgba(24,33,38,0.08)" stroke-width="2" />
</svg>
